<?xml version="1.0" encoding="UTF-8"?><svg id="Capa_1" xmlns="http://www.w3.org/2000/svg" viewBox="0 0 1160.96 460.24"><defs><style>.cls-1{fill:#2c7fbd;}.cls-1,.cls-2{stroke-width:0px;}.cls-2{fill:#223362;}</style></defs><path class="cls-2" d="m266.46,255.04h-54.3s-1.96,0-1.96,2.61c-.05.86.12,2.41,1.96,2.41h22.53s1.4.05,1.4,1.51c0,.9-.49,1.62-1.23,1.62h-28.26s-2.34-.06-2.34,2.39c0,2.1,1.56,2.39,2.53,2.39h27.91s1.62.05,1.62,1.57c0,1.29-.83,1.67-1.62,1.67h-32.23s-2.1.08-2.1,2.75,2.37,2.76,2.37,2.76h31.96s1.93-.21,1.93,1.41c0,1.73-1.84,1.55-1.84,1.55h-26.07s-2.59,0-2.59,2.67c0,0-.15,2.69,2.32,2.69h22.35s2.97.15,5.07-.2c1.91-.32,4.28-.78,7.51-1.33,0,0,7.59-1.2,8.11-1.2,1.41,0,1.9,1.77-.02,2.02-1.95.26-3.7.31-3.7.31-4.95.4-5.77.42-10,1.19-2.46.45-10.01,2.13-9.35,5.9.1.51.38.87.76,1.12.91.59,2.42.57,3.41.57h33.88c4.93,0,7.95-2.55,7.95-7.98v-22.21c0-5.71-3.97-8.19-7.95-8.19"/><path class="cls-2" d="m116.28,293.42h54.29s1.97,0,1.97-2.61c.05-.87-.11-2.41-1.97-2.41h-22.51s-1.41-.05-1.41-1.51c0-.9.48-1.63,1.24-1.63h28.25s2.34.07,2.34-2.39c0-2.09-1.56-2.39-2.53-2.39h-27.9s-1.63-.05-1.63-1.57c0-1.29.83-1.67,1.63-1.67h32.22s2.1-.08,2.1-2.76-2.37-2.76-2.37-2.76h-31.95s-1.94.21-1.94-1.41c0-1.73,1.84-1.54,1.84-1.54h26.07s2.59,0,2.59-2.67c0,0,.15-2.7-2.33-2.7h-22.34s-2.97-.15-5.07.19c-1.91.32-4.28.79-7.51,1.34,0,0-7.59,1.2-8.11,1.2-1.41,0-1.9-1.77.02-2.02,1.97-.26,3.7-.3,3.7-.3,4.95-.4,5.78-.42,10.01-1.19,2.47-.45,10.02-2.13,9.35-5.9-.1-.51-.38-.87-.76-1.11-.91-.6-2.42-.57-3.41-.57h-33.88c-4.92,0-7.93,2.54-7.93,7.97v22.21c0,5.71,3.96,8.19,7.93,8.19"/><path class="cls-2" d="m211.02,347.57v-53.04s0-1.92-2.68-1.92c-.88-.04-2.47.12-2.47,1.92v22.01s-.04,1.37-1.55,1.37c-.91,0-1.66-.48-1.66-1.2v-27.6s.07-2.3-2.45-2.3c-2.14,0-2.44,1.52-2.44,2.47v27.25s-.05,1.59-1.61,1.59c-1.31,0-1.71-.8-1.71-1.59v-31.47s-.08-2.05-2.81-2.05-2.83,2.31-2.83,2.31v31.21s.22,1.9-1.44,1.9c-1.76,0-1.57-1.8-1.57-1.8v-25.46s0-2.53-2.74-2.53c0,0-2.76-.14-2.76,2.27v21.83s-.15,2.89.19,4.96c.32,1.86.81,4.18,1.37,7.33,0,0,1.23,7.41,1.23,7.92,0,1.37-1.81,1.86-2.07-.02-.25-1.92-.31-3.63-.31-3.63-.41-4.82-.43-5.64-1.21-9.77-.47-2.41-2.19-9.78-6.05-9.13-.53.08-.89.36-1.15.74-.6.9-.58,2.37-.58,3.34v33.09c0,4.82,2.61,7.76,8.17,7.76h22.73c5.84,0,8.4-3.87,8.4-7.76"/><path class="cls-2" d="m171.72,200.88v53.05s0,1.92,2.68,1.92c.89.04,2.47-.12,2.47-1.92v-22.01s.04-1.37,1.54-1.37c.93,0,1.66.47,1.66,1.2v27.6s-.07,2.3,2.45,2.3c2.14,0,2.45-1.52,2.45-2.47v-27.26s.05-1.58,1.6-1.58c1.32,0,1.72.79,1.72,1.58v31.47s.08,2.06,2.81,2.06,2.83-2.32,2.83-2.32v-31.21s-.22-1.9,1.45-1.9c1.76,0,1.58,1.8,1.58,1.8v25.48s0,2.52,2.73,2.52c0,0,2.76.14,2.76-2.27v-21.83s.16-2.89-.2-4.95c-.31-1.88-.8-4.19-1.37-7.34,0,0-1.22-7.41-1.22-7.92,0-1.38,1.81-1.86,2.07.01.26,1.91.31,3.63.31,3.63.41,4.83.44,5.64,1.22,9.77.47,2.41,2.18,9.79,6.05,9.13.52-.09.88-.36,1.14-.73.6-.9.58-2.38.58-3.34v-33.09c0-4.81-2.61-7.76-8.17-7.76h-22.74c-5.84,0-8.39,3.87-8.39,7.76"/><path class="cls-1" d="m430.86,353.9v-113.48c-1.33,0-1.89,0-2.65.9-1.12,1.11-1.31,3.14-2.06,6.25l-17.9,71.01c-1.5,5.69-2.82,11.4-5.44,17.08-1.53,3.52-6.42,13.8-18.67,17.12-2.79.74-6,1.11-12.41,1.11h-8.44l-28.85-104.31c-.35-1.82-.91-3.82-1.47-5.69,0,0-.38-3.13-2.85-3.13-1.88,0-2.06,2.77-1.88,5.89l.2,107.22h-20.51v-129.86h41.03l32.56,114.78c.2-.21.97-.74,1.53-1.67.91-1.48,1.67-4.95,2.64-9.19l19.58-78.37c.38-.89,2.06-8.27,4.71-13.05,7.16-12.68,19.95-12.33,24.84-12.5h17.71v129.86h-21.65Z"/><path class="cls-1" d="m493.36,307.18c.2,3.47.2,5.89.79,9.18.56,2.59,2.62,12.7,9.77,19.3,5.65,5.54,14.69,7.92,22.59,7.92,4.91,0,13.75-.73,23.34-7.72,2.64-1.85,4.15-3.31,8.47-7.37v18.59c-1.68.92-5.83,3.13-10.71,4.96-4.32,1.48-13.58,4.43-26,4.43-16.03-.21-26.54-5.16-31.78-8.81-7.74-5.17-19.81-17.12-19.81-39.92,0-5.34.76-22.07,12.06-35.15,12.22-14.16,29.56-15.61,35.77-15.61,6.78,0,28.64,1.82,38.79,21.88,5.64,11.39,5.08,24.63,5.27,28.32h-68.55Zm45.38-12.33c-.56-9.02-1.88-16.93-10.35-22.07-4.69-2.93-9.04-3.3-11.1-3.3-14.52.18-20.14,13.79-21.28,17.29-.94,2.76-1.3,5.51-1.71,8.28l44.44-.19Z"/><path class="cls-1" d="m666.05,353.9h-35.04c-4.32,0-8.47-.19-12.79-.19-7.35-.37-26.37-1.11-38.23-18.94-3-4.4-7.91-13.8-7.91-27.58,0-7.35,1.34-14.72,4.15-21.51,11.11-26.67,38.21-28.69,47.07-28.69,7.71,0,13.18,1.08,20.34,3.11v-48h22.41v141.81Zm-22.41-60.88c0-3.88-.2-7.91-1.32-11.23-1.32-4.05-6.59-13.04-19.02-13.04-2.61,0-7.91.16-13.55,3.84-14.5,9.04-14.5,29.81-14.5,32.93,0,2.94-.39,23.91,13.74,33.29,2.64,1.64,7.71,4.22,15.26,4.22,9.59,0,16.18-3.69,19.38-5.33v-44.69Z"/><path class="cls-1" d="m698.05,222.77c7.35,0,13.18,5.88,13.18,13.05s-6.03,12.89-13.38,12.89-13.15-5.7-13.15-12.89,6-13.05,13.35-13.05m11.11,131.13h-22.41v-94.55h22.41v94.55Z"/><polygon class="cls-1" points="754.55 338.44 800.86 338.44 800.86 353.9 731.55 353.9 731.55 224.04 754.55 224.04 754.55 338.44"/><path class="cls-1" d="m827.4,222.77c7.35,0,13.18,5.88,13.18,13.05s-6.03,12.89-13.35,12.89-13.18-5.7-13.18-12.89,6-13.05,13.35-13.05m11.11,131.13h-22.38v-94.55h22.38v94.55Z"/><path class="cls-1" d="m881.63,259.35c27.49,0,41.6.92,52.34,9.94,8.84,7.35,9.6,16.72,10.35,27.41v57.19h-22.19v-57.19c-.23-6.45-.59-9.4-1.52-12.35-2.1-6.24-7.74-12.68-22.22-12.68-8.87,0-13.02,2.21-16.78,4.04v78.18h-22.39v-94.55h22.39Z"/><path class="cls-1" d="m965.05,212.09h22.02v141.81h-22.02v-141.81Zm59.67,141.81l-22.95-25.39c-7.35-8.83-12.06-15.27-12.06-20.41,0-6.45,7.52-14.35,11.67-18.77l27.49-29.98h23.17l-42.19,46.53,42.75,48.02h-27.88Z"/><path class="cls-2" d="m387.03,127.88h17.4v20.66c-2.51,1.84-5.18,3.17-8.01,4-2.83.83-5.8,1.24-8.89,1.24-4.03,0-7.7-.63-11-1.9-3.3-1.27-6.13-3.01-8.48-5.24-2.35-2.23-4.17-4.87-5.44-7.93-1.28-3.06-1.91-6.38-1.91-9.96s.6-7.01,1.81-10.06c1.21-3.06,2.94-5.69,5.19-7.91,2.25-2.22,4.97-3.94,8.16-5.17,3.19-1.23,6.76-1.85,10.7-1.85,2.04,0,3.95.17,5.75.5,1.79.34,3.44.8,4.96,1.38,1.51.58,2.89,1.28,4.15,2.08,1.25.81,2.37,1.68,3.36,2.62l-3.29,5.01c-.52.78-1.18,1.27-2,1.44-.82.18-1.7-.02-2.64-.6-.9-.54-1.74-1-2.54-1.39-.79-.39-1.61-.71-2.44-.96-.83-.25-1.7-.43-2.62-.54s-1.95-.17-3.09-.17c-2.13,0-4.04.38-5.75,1.13-1.7.75-3.15,1.81-4.35,3.18-1.2,1.37-2.12,3.01-2.77,4.92-.65,1.92-.97,4.05-.97,6.4,0,2.6.36,4.91,1.08,6.92.72,2.02,1.73,3.72,3.04,5.11,1.31,1.39,2.88,2.45,4.7,3.17,1.83.73,3.85,1.09,6.06,1.09,1.37,0,2.6-.13,3.71-.4,1.11-.27,2.19-.63,3.24-1.08v-7.42h-4.84c-.72,0-1.28-.19-1.68-.57-.4-.38-.61-.86-.61-1.44v-6.25Z"/><path class="cls-2" d="m503.31,153.25h-10.28c-1.9,0-3.27-.72-4.1-2.15l-8.13-14.21c-.38-.6-.81-1.05-1.28-1.33-.47-.28-1.14-.42-2.02-.42h-2.89v18.11h-11.36v-48.95h15.92c3.54,0,6.56.36,9.05,1.09,2.5.73,4.54,1.74,6.11,3.04,1.58,1.3,2.73,2.83,3.44,4.6.72,1.77,1.07,3.7,1.07,5.78,0,1.59-.21,3.09-.64,4.5-.43,1.41-1.05,2.72-1.88,3.91-.83,1.2-1.85,2.27-3.07,3.21s-2.63,1.71-4.22,2.32c.74.38,1.43.86,2.08,1.43s1.23,1.25,1.75,2.03l10.42,17.03Zm-24.12-25.94c1.55,0,2.86-.2,3.95-.59,1.09-.39,1.98-.94,2.67-1.63s1.2-1.51,1.51-2.44c.31-.93.47-1.93.47-3.01,0-2.15-.7-3.83-2.1-5.04-1.4-1.21-3.57-1.81-6.5-1.81h-4.57v14.51h4.57Z"/><path class="cls-2" d="m579.07,144.28c1.52,0,2.88-.25,4.08-.76,1.2-.5,2.21-1.23,3.04-2.17.83-.94,1.46-2.09,1.9-3.44s.66-2.9.66-4.62v-28.99h11.36v28.99c0,3-.49,5.76-1.46,8.27s-2.37,4.67-4.18,6.48c-1.81,1.81-4.02,3.23-6.62,4.23-2.6,1.01-5.52,1.51-8.77,1.51s-6.2-.5-8.8-1.51c-2.6-1.01-4.8-2.42-6.62-4.23-1.81-1.81-3.2-3.98-4.17-6.48-.96-2.51-1.45-5.26-1.45-8.27v-28.99h11.36v28.96c0,1.72.22,3.26.66,4.62.44,1.36,1.07,2.51,1.9,3.46.83.95,1.84,1.68,3.04,2.18,1.2.5,2.56.76,4.08.76Z"/><path class="cls-2" d="m677.44,104.3c3.45,0,6.41.41,8.89,1.23,2.47.82,4.51,1.94,6.11,3.38,1.6,1.43,2.78,3.12,3.54,5.07.76,1.95,1.14,4.05,1.14,6.32,0,2.44-.39,4.68-1.17,6.72-.78,2.04-1.98,3.79-3.6,5.24-1.61,1.46-3.66,2.59-6.13,3.41-2.48.82-5.4,1.23-8.79,1.23h-5.91v16.36h-11.36v-48.95h17.27Zm0,24.02c2.96,0,5.08-.71,6.38-2.12,1.3-1.41,1.95-3.38,1.95-5.91,0-1.12-.17-2.14-.5-3.06-.34-.92-.85-1.71-1.53-2.37-.68-.66-1.55-1.17-2.59-1.53-1.04-.36-2.28-.54-3.71-.54h-5.91v15.52h5.91Z"/><path class="cls-2" d="m800.27,128.76c0,3.54-.61,6.83-1.83,9.88-1.22,3.05-2.94,5.69-5.16,7.95-2.22,2.25-4.89,4.02-8.01,5.29-3.12,1.28-6.59,1.92-10.4,1.92s-7.28-.64-10.41-1.92c-3.14-1.28-5.82-3.04-8.05-5.29-2.23-2.25-3.95-4.9-5.17-7.95-1.22-3.05-1.83-6.34-1.83-9.88s.61-6.83,1.83-9.88c1.22-3.05,2.94-5.69,5.17-7.93,2.23-2.24,4.91-4,8.05-5.27,3.14-1.28,6.61-1.91,10.41-1.91s7.27.64,10.4,1.93c3.12,1.29,5.8,3.05,8.01,5.29,2.22,2.24,3.94,4.88,5.16,7.93,1.22,3.05,1.83,6.33,1.83,9.84Zm-11.63,0c0-2.42-.31-4.6-.94-6.53-.63-1.94-1.53-3.58-2.7-4.92-1.18-1.34-2.61-2.37-4.32-3.09-1.7-.72-3.64-1.07-5.81-1.07s-4.15.36-5.86,1.07c-1.71.72-3.16,1.75-4.33,3.09-1.18,1.34-2.08,2.99-2.7,4.92-.63,1.94-.94,4.12-.94,6.53s.31,4.63.94,6.57c.63,1.94,1.53,3.58,2.7,4.92,1.18,1.34,2.62,2.37,4.33,3.07,1.71.71,3.67,1.06,5.86,1.06s4.11-.35,5.81-1.06c1.7-.71,3.14-1.73,4.32-3.07,1.18-1.34,2.08-2.98,2.7-4.92.63-1.94.94-4.13.94-6.57Z"/><rect class="cls-1" x="824.56" y="127" width="253.14" height="3.55"/><rect class="cls-1" x="83.25" y="127" width="253.14" height="3.55"/></svg>